<?xml version="1.0" encoding="UTF-8"?>
<!DOCTYPE svg PUBLIC "-//W3C//DTD SVG 1.1//EN" "http://www.w3.org/Graphics/SVG/1.1/DTD/svg11.dtd">
<!-- Creator: CorelDRAW X7 -->
<svg xmlns="http://www.w3.org/2000/svg" xml:space="preserve" width="128px" height="128px" version="1.1" style="shape-rendering:geometricPrecision; text-rendering:geometricPrecision; image-rendering:optimizeQuality; fill-rule:evenodd; clip-rule:evenodd"
     viewBox="0 0 128 128"
     xmlns:xlink="http://www.w3.org/1999/xlink">
 <defs>
  <style type="text/css">
   <![CDATA[
    .fil1 {fill:#EF7F1A}
    .fil0 {fill:#EF7F1A;fill-rule:nonzero}
   ]]>
  </style>
 </defs>
    <g id="L1">
  <metadata id="CorelCorpID_0Corel-Layer"/>
        <g id="_716810384">
   <path class="fil0" d="M47 28l-6 29 9 36 -16 0c-1,-6 -3,-14 -5,-24 0,5 -1,9 -2,14l-1 10 -17 0 6 -36 -6 -29 17 0c0,1 1,4 2,9 0,3 1,6 1,9l4 -18 14 0z"/>
            <polygon id="1" class="fil0" points="53,28 81,28 81,41 70,41 70,53 80,53 80,66 70,66 70,80 82,80 82,93 53,93 "/>
            <polygon class="fil1" points="111,68 111,93 104,93 104,68 92,51 107,28 123,51 "/>
  </g>
 </g>
</svg>